<?xml version="1.0" standalone="no"?>
<!DOCTYPE svg PUBLIC "-//W3C//DTD SVG 20010904//EN"
 "http://www.w3.org/TR/2001/REC-SVG-20010904/DTD/svg10.dtd">
<svg version="1.0" xmlns="http://www.w3.org/2000/svg"
 width="512.000000pt" height="512.000000pt" viewBox="0 0 512.000000 512.000000"
 preserveAspectRatio="xMidYMid meet">
<metadata>
</metadata>
<g transform="translate(0.000000,512.000000) scale(0.100000,-0.100000)"
fill="#000000" stroke="none">
<path d="M3126 5099 c-70 -55 -296 -331 -312 -381 -3 -10 -9 -18 -14 -18 -4 0
-29 41 -54 91 -52 101 -110 177 -142 185 -49 12 -130 -62 -182 -166 l-28 -56
-70 53 c-90 70 -183 126 -325 197 -184 93 -190 87 -191 -219 0 -49 0 -122 -1
-162 0 -67 -1 -72 -18 -63 -35 19 -165 42 -246 43 -62 0 -88 -4 -108 -17 -27
-18 -28 -19 -22 -105 3 -47 8 -97 11 -111 4 -14 8 -37 11 -51 27 -145 110
-340 198 -461 l55 -77 -61 -20 c-34 -10 -81 -24 -104 -30 -63 -17 -275 -109
-285 -123 -27 -43 8 -95 89 -134 84 -39 240 -91 344 -114 51 -11 94 -22 97
-24 2 -3 -11 -11 -29 -19 -69 -29 -157 -112 -255 -242 -248 -325 -302 -425
-331 -610 -9 -61 -26 -111 -58 -175 -29 -58 -109 -290 -120 -352 -3 -12 -7
-34 -10 -48 -21 -109 -23 -253 -5 -331 7 -30 34 -95 60 -144 26 -50 51 -111
55 -135 4 -25 9 -52 10 -60 2 -8 6 -40 9 -71 4 -31 9 -67 11 -80 3 -13 8 -37
11 -54 13 -75 48 -195 72 -250 56 -129 113 -195 227 -266 44 -27 123 -91 176
-141 143 -138 315 -233 437 -243 31 -3 123 -7 204 -9 136 -5 153 -7 215 -35
123 -53 211 -70 337 -66 143 5 248 30 353 83 63 33 178 122 215 169 18 23 61
62 95 87 34 25 80 70 102 100 23 31 65 73 94 94 28 22 88 75 132 118 196 193
235 280 240 529 2 140 2 140 48 255 132 334 145 558 43 773 -19 40 -46 85 -60
101 -14 16 -26 39 -27 50 0 12 -2 68 -3 126 -2 58 -6 119 -10 135 -3 17 -8 41
-11 54 -16 85 -100 276 -163 367 -39 59 -164 184 -182 184 -6 0 -10 4 -10 9 0
17 84 147 140 216 58 72 86 114 162 250 92 162 101 184 88 215 -23 57 -95 56
-331 -3 -71 -18 -129 -32 -129 -31 0 1 22 48 49 105 73 153 116 299 135 459 9
80 19 156 21 170 4 29 -16 67 -41 79 -33 15 -60 14 -141 -4 -70 -16 -92 -23
-180 -58 -29 -11 -55 -19 -57 -16 -2 2 -7 42 -10 89 -4 47 -9 92 -11 100 -2 8
-6 32 -9 53 -9 59 -67 186 -102 223 -36 39 -61 42 -98 13z m67 -178 c31 -83
40 -134 52 -281 l6 -75 -37 -20 c-48 -26 -126 -84 -181 -136 -24 -23 -46 -39
-49 -36 -7 7 47 270 71 346 10 33 -11 24 -28 -11 -13 -26 -96 -273 -114 -338
-3 -8 -15 26 -28 75 -13 50 -28 102 -33 116 -8 21 -6 33 10 60 52 86 281 369
298 369 4 0 19 -31 33 -69z m-1082 -102 c69 -40 142 -93 204 -147 l37 -33 -11
-57 c-6 -31 -13 -82 -17 -112 -15 -143 -15 -145 -36 -103 -28 55 -44 79 -132
201 -88 121 -123 151 -110 95 7 -30 20 -56 105 -203 31 -52 58 -103 62 -112 3
-10 -31 7 -86 44 -51 33 -123 76 -162 95 -38 20 -71 36 -72 37 -2 1 1 17 7 35
15 54 24 151 22 258 l-1 103 62 -31 c34 -17 92 -49 128 -70z m522 -41 c31 -63
79 -209 92 -280 3 -13 16 -75 31 -138 15 -63 28 -143 30 -178 3 -55 -1 -69
-32 -123 -37 -67 -110 -262 -130 -349 l-12 -55 -2 120 c-2 66 -4 156 -5 200
-2 44 2 116 8 160 14 108 13 213 -1 227 -17 17 -39 -6 -47 -50 -4 -20 -9 -46
-11 -58 -26 -140 -25 -423 2 -709 4 -48 4 -49 -10 -25 -20 32 -76 166 -82 194
-14 60 -22 110 -30 166 -3 25 -7 52 -9 60 -25 96 -22 454 4 573 16 68 76 202
148 330 10 17 22 3 56 -65z m1031 -245 c-4 -38 -8 -79 -9 -93 -20 -201 -109
-419 -263 -649 -105 -156 -212 -246 -433 -364 -83 -45 -181 -86 -206 -87 -18
-1 97 157 171 235 21 22 68 85 105 140 38 55 110 156 161 225 101 136 147 218
137 244 -11 27 -41 4 -103 -82 -32 -42 -83 -108 -114 -147 -31 -38 -85 -110
-120 -160 -35 -49 -97 -130 -138 -180 -42 -49 -92 -112 -111 -140 l-36 -50 -3
43 c-2 23 4 79 13 122 9 44 18 92 21 106 9 51 65 206 103 287 42 91 127 209
219 309 124 132 308 233 542 297 72 19 72 19 64 -56z m-1929 -68 c145 -44 363
-167 472 -267 32 -29 68 -60 80 -68 18 -12 23 -28 28 -80 3 -36 7 -81 10 -100
3 -19 7 -57 10 -85 3 -27 8 -68 11 -90 8 -57 58 -204 94 -276 17 -33 30 -63
28 -65 -2 -2 -36 38 -76 89 -39 51 -88 110 -108 132 -20 22 -78 92 -129 155
-51 63 -123 144 -160 180 -37 36 -84 90 -105 120 -43 62 -87 107 -96 97 -4 -4
-2 -12 3 -19 6 -7 16 -31 23 -53 23 -73 49 -112 128 -197 43 -45 100 -112 127
-148 27 -36 83 -105 123 -155 41 -49 82 -99 91 -110 51 -63 82 -105 76 -105
-3 0 -32 13 -63 29 -31 16 -91 45 -132 65 -41 19 -84 43 -95 53 -11 10 -49 43
-85 73 -125 106 -183 166 -256 266 -115 158 -166 276 -199 466 -23 128 -21
132 58 124 34 -4 98 -18 142 -31z m2145 -636 c0 -30 -124 -232 -200 -324 -31
-38 -65 -86 -75 -105 -9 -19 -28 -50 -41 -67 l-25 -32 -48 29 c-58 36 -125 66
-210 95 l-64 22 89 28 c104 32 264 103 280 125 7 8 9 20 7 28 -7 17 -45 9
-148 -33 -136 -56 -137 -55 -70 16 33 36 74 81 90 102 27 35 38 40 115 57 47
11 130 30 185 44 123 29 115 28 115 15z m-2049 -199 c64 -64 62 -68 -16 -45
-57 18 -145 27 -145 15 0 -4 15 -11 33 -14 17 -3 55 -18 82 -33 28 -15 92 -43
143 -63 l94 -37 -46 -17 c-44 -17 -51 -17 -114 -2 -95 23 -101 24 -122 31 -10
3 -27 8 -37 10 -96 19 -245 64 -281 84 -16 9 -7 13 198 85 69 24 131 44 138
45 7 0 40 -26 73 -59z m1381 -253 c35 -24 110 -70 168 -102 128 -71 211 -129
268 -188 l44 -44 -64 -32 c-35 -17 -76 -39 -93 -50 -164 -102 -365 -211 -389
-211 -7 0 -16 10 -20 23 -10 43 -126 204 -203 284 -43 44 -107 103 -141 131
-67 55 -67 57 8 66 78 9 119 26 239 97 64 38 117 69 118 69 1 0 30 -20 65 -43z
m-912 -40 c101 -40 159 -58 263 -81 25 -6 20 -10 -61 -52 -49 -25 -124 -73
-168 -107 -131 -104 -262 -198 -346 -248 l-79 -48 -103 102 c-56 56 -119 124
-141 151 l-40 49 60 54 c142 129 351 233 458 228 23 -1 94 -22 157 -48z m434
-207 c80 -71 141 -137 198 -213 57 -78 134 -205 127 -211 -7 -7 -139 -66 -246
-112 -60 -25 -138 -61 -176 -80 -77 -39 -331 -188 -366 -216 -25 -19 -51 -24
-51 -10 0 20 -138 265 -195 348 -47 68 -60 95 -52 103 6 6 14 11 19 11 10 0
149 85 213 129 61 43 123 91 195 153 30 25 98 75 150 111 l95 65 25 -22 c14
-11 43 -37 64 -56z m-989 -264 c50 -53 88 -100 86 -104 -2 -4 -42 -28 -90 -53
-199 -106 -315 -181 -406 -264 -33 -30 -63 -55 -66 -55 -4 0 -6 12 -4 28 2 15
6 59 10 97 4 51 15 89 40 142 32 66 147 229 207 293 13 14 36 45 51 68 l28 44
27 -50 c15 -28 68 -93 117 -146z m2077 -71 c47 -113 67 -210 72 -344 l4 -122
-26 -10 c-66 -23 -172 -87 -290 -172 l-84 -60 -31 38 c-107 129 -142 179 -177
250 -31 65 -95 231 -103 268 -1 5 36 29 83 54 129 69 124 66 300 176 l165 103
29 -55 c16 -31 42 -87 58 -126z m-1875 -177 c26 -40 84 -145 129 -232 l82
-160 -187 -140 c-102 -78 -250 -194 -328 -258 -78 -65 -146 -118 -152 -118
-15 0 -113 152 -164 255 -81 161 -102 266 -64 317 30 40 173 159 257 214 80
51 349 194 368 194 7 0 34 -33 59 -72z m1193 -124 c55 -161 105 -252 223 -403
l50 -63 -39 -34 c-68 -60 -340 -262 -476 -354 l-131 -88 -57 76 c-31 43 -66
87 -76 98 -111 125 -302 372 -343 445 l-20 35 137 81 c75 44 162 93 192 109
86 43 484 213 494 210 5 -1 26 -51 46 -112z m844 -307 c47 -73 67 -138 73
-237 8 -131 -36 -329 -104 -465 l-25 -49 -20 39 c-53 106 -225 379 -284 453
-37 46 -63 87 -58 91 66 61 335 220 372 221 7 0 27 -24 46 -53z m-2773 -131
c37 -110 82 -199 159 -315 l62 -92 -74 -72 c-40 -40 -99 -100 -130 -134 l-57
-62 -40 72 c-21 40 -45 92 -51 117 -17 61 -21 194 -9 255 6 28 12 60 15 73 12
57 85 254 92 247 2 -2 17 -42 33 -89z m1018 51 c53 -94 137 -210 257 -357 135
-166 199 -250 193 -253 -2 -1 -15 -8 -29 -16 -98 -56 -234 -125 -345 -174 -77
-35 -178 -91 -248 -138 -111 -75 -137 -86 -137 -54 0 27 -91 193 -148 268 -32
43 -98 121 -147 173 -87 94 -87 95 -69 116 62 70 607 477 639 478 6 0 21 -19
34 -43z m1311 -233 c73 -92 110 -149 178 -274 28 -52 64 -120 81 -150 33 -60
36 -70 21 -70 -16 0 -152 -93 -254 -173 -143 -112 -436 -294 -455 -283 -24 15
-102 151 -150 261 -29 66 -73 157 -96 202 l-44 82 131 93 c72 51 171 122 220
156 50 35 137 102 195 148 57 46 106 84 108 84 2 0 31 -34 65 -76z m-1953
-414 c153 -193 189 -250 233 -369 l27 -73 -96 -97 c-81 -81 -217 -248 -257
-317 -11 -19 -12 -19 -49 1 -49 25 -113 99 -148 168 -31 63 -73 221 -81 312
-3 33 -8 89 -11 125 -4 36 -8 72 -11 81 -2 9 11 36 31 60 62 75 247 251 255
242 4 -4 52 -64 107 -133z m1197 -137 c24 -49 56 -117 71 -153 38 -93 91 -195
130 -253 l34 -51 -118 -62 c-124 -65 -222 -127 -281 -179 -89 -78 -191 -187
-233 -249 l-45 -68 -41 37 c-86 78 -132 153 -243 395 -36 78 -98 236 -98 249
0 23 244 171 395 239 88 40 205 97 260 127 55 29 106 54 112 54 7 1 33 -38 57
-86z m1112 -49 c26 -166 -10 -319 -95 -409 -48 -52 -212 -199 -248 -224 -43
-28 -60 -45 -97 -94 l-29 -38 -24 47 c-35 69 -58 100 -145 191 -43 45 -78 86
-78 91 0 6 28 26 63 45 211 116 265 151 364 230 51 41 123 93 160 117 37 24
77 49 88 56 25 16 37 13 41 -12z m-1981 -451 c46 -119 176 -384 210 -429 28
-36 33 -43 90 -102 l40 -43 -125 1 c-177 2 -235 17 -350 88 -48 31 -231 192
-238 211 -1 4 6 16 15 26 10 11 36 42 58 70 78 97 243 275 255 275 4 0 24 -44
45 -97z m1349 -242 c15 -20 42 -63 58 -96 l30 -59 -23 -15 c-13 -9 -49 -41
-79 -72 -109 -111 -206 -166 -342 -193 -149 -31 -277 -16 -410 46 -48 23 -90
48 -93 56 -6 17 93 143 197 249 89 91 182 156 340 236 l123 63 85 -90 c47 -49
98 -106 114 -125z"/>
</g>
</svg>
