<svg width="31" height="48" viewBox="0 0 31 48" fill="none" xmlns="http://www.w3.org/2000/svg">
<path d="M1.11133 12.0623C1.27165 10.644 1.64163 9.26278 2.27058 7.9432C3.41751 5.55069 5.18105 3.75015 7.57356 2.56623C9.4851 1.62896 11.5076 1.19732 13.6042 1.06166C13.7398 1.04933 13.8631 1.01233 13.9988 1C14.7757 1 15.5527 1 16.3296 1C17.2422 1.12333 18.1672 1.19732 19.0675 1.36998C21.5586 1.82628 23.8031 2.81288 25.6407 4.57643C27.5892 6.45097 28.7115 8.76948 29.1184 11.4333C29.2541 12.2966 29.3034 13.1845 29.3034 14.0601C29.3158 16.9459 29.3158 19.8441 29.3158 22.7299" stroke="#272727" stroke-width="2" stroke-miterlimit="10" stroke-linecap="round" stroke-linejoin="round"/>
<path d="M29.3276 24.9866C29.3276 25.0729 29.3276 24.9126 29.3276 24.9866" stroke="#272727" stroke-width="2" stroke-miterlimit="10" stroke-linecap="round" stroke-linejoin="round"/>
<path d="M29.3278 27.256C29.3278 29.5252 29.3278 31.782 29.3278 34.0512C29.3278 36.1108 28.9578 38.084 28.0699 39.9462C26.923 42.3264 25.1841 44.1269 22.7916 45.2862C20.0661 46.6181 17.1556 46.9511 14.1588 46.8401C11.8896 46.7538 9.6821 46.3344 7.62256 45.3355C4.81075 43.9666 2.91154 41.7837 1.81395 38.8733C1.22199 37.2947 1 35.6421 1 33.9526C1 27.5643 1 21.176 1 14.8001" stroke="#272727" stroke-width="2" stroke-miterlimit="10" stroke-linecap="round" stroke-linejoin="round"/>
<path d="M13.2955 13.049C13.2955 13.7026 13.2832 14.3562 13.2955 15.0222C13.3202 16.1445 14.0971 16.9584 15.1454 16.9707C16.2183 16.9831 17.0323 16.1691 17.0446 15.0222C17.0569 13.7396 17.0569 12.457 17.0446 11.1744C17.0323 10.0522 16.243 9.23824 15.1947 9.22591C14.1218 9.21357 13.3202 10.0399 13.2955 11.1744C13.2832 11.8034 13.2955 12.42 13.2955 13.049Z" stroke="#272727" stroke-width="2" stroke-miterlimit="10"/>
</svg>