<?xml version="1.0" encoding="iso-8859-1"?>
<!-- Generator: Adobe Illustrator 19.0.0, SVG Export Plug-In . SVG Version: 6.00 Build 0)  -->
<svg version="1.1" id="Layer_1" xmlns="http://www.w3.org/2000/svg" xmlns:xlink="http://www.w3.org/1999/xlink" x="0px" y="0px"
	 viewBox="0 0 512.001 512.001" style="enable-background:new 0 0 512.001 512.001;" xml:space="preserve">
<g>
	<g>
		<path d="M413.423,297.325c-2.038-5.463-3.915-10.85-7.649-15.395c-1.445-1.759-3.445-3.438-3.983-5.743
			c-0.662-2.828,0.068-6.517,0.061-9.41c-0.03-12.034-1.713-23.988-6.285-35.204c-4.178-10.251-8.514-20.402-15.824-28.936
			c-4.13-4.822-8.03-9.176-13.332-12.722c-1.058-0.708-2.116-1.452-3.189-2.175c2.96-3.225,4.654-6.85,6.814-10.818
			c3.207-5.895,8.656-10.193,12.386-15.695c4.029-5.939,7.807-12.631,11.288-18.915c3.16-5.703,6.574-11.519,9.431-17.341
			c0.83-1.691,1.267-4.13,0-5.78c-3.529-4.593-7.605-4.005-12.8-3.164c-6.463,1.046-13.169,2.301-19.468,4.128
			c-4.019,1.166-9.4,2.124-14.63,3.632c1.152-2.122,2.275-4.223,3.378-6.27c6.742-12.512,11.63-25.653,14.165-39.698
			c1.308-7.25,1.844-14.621,3.06-21.881c0.851-5.077,1.829-12.236-4.473-14.303c-4.971-1.632-11.057,0.713-15.896,1.678
			c-7.297,1.456-13.682,4.25-20.55,6.995c-0.182,0.073-0.357,0.153-0.538,0.226c-0.682-8.652-1.082-17.456-2.963-25.968
			c-0.963-4.36-3.085-8.77-4.792-12.91c-1.582-3.837-3.563-7.456-6.798-10.137c-1.812-1.503-4.237-2.095-6.379-0.823
			c-4.983,2.958-8.245,7.605-12.281,11.759c-4.446,4.576-8.08,10.081-12.015,15.084c-3.792,4.823-7.567,10.223-10.324,15.756
			c-1.489-3.132-3.053-6.191-4.652-9.152c-2.557-4.733-4.915-11.633-9.57-15.187c-0.151-0.254-0.295-0.505-0.447-0.76
			c-4.13-6.9-9.658-4.242-14.241,0.348c-5.132,5.14-8.939,11.47-11.765,18.349c-1.212-1.282-2.716-2.38-4.225-3.579
			c-4.796-3.813-9.36-7.414-14.609-10.64c-9.724-5.978-20.188-10.982-30.388-15.979c-4.102-2.009-7.818,0.532-8.374,4.804
			c-0.454,3.494-0.785,7.363-0.904,10.892c-0.149,4.425,1.152,8.642,0.699,13.089c-0.744,7.3-1.617,14.251-0.133,21.247
			c-11.649-4.2-23.916-6.54-36.208-4.354c-1.632,0.29-3.499,2.084-3.747,3.747c-1.168,7.828,0.697,17.083,2.365,24.75
			c1.885,8.659,4.544,16.859,7.956,25.036c4.136,9.914,10.416,19.373,17.472,27.968c-5.06,1.144-10.328,3.679-14.454,4.583
			c-5.044,1.105-9.619,2.905-14.328,5.004c-4.814,2.145-9.916,3.766-14.603,6.17c-2.728,1.399-3.57,5.285-2.051,7.823
			c2.78,4.643,8.208,6.848,12.974,8.975c3.5,1.562,7.323,2.809,11.014,3.853c3.136,0.887,5.926,2.384,9.031,3.274
			c6.814,1.953,13.97,2.771,20.781,4.761c0.128,0.038,0.258,0.075,0.388,0.114c-6.546,2.8-12.385,6.67-17.604,11.556
			c-6.903,6.462-11.087,14.418-16.973,21.563c-6.089,7.391-11.874,15.486-16.663,23.762c-2.116,3.656-4.734,7.157-6.374,11.048
			c-2.065,4.899-3.002,9.706-4.008,14.872c-0.572,2.938-1.3,5.865-1.756,8.786c-0.752,4.818-3.03,9.113-5.24,13.436
			c-4.068,7.956-6.38,16.972-9.109,25.468c-3.256,10.137-5.153,20.864-5.496,31.526c-0.296,9.236,1.339,19.789,5.855,27.891
			c2.269,4.071,5.47,7.914,6.538,12.525c1.219,5.259,1.664,11.086,2.439,16.452c2.766,19.117,7.141,42.338,21.081,56.679
			c6.9,7.099,16.602,9.872,23.509,17.013c6.892,7.126,12.979,13.901,21.763,18.73c8.049,4.426,15.847,9.577,25.216,10.776
			c10.284,1.315,20.875,0.085,31.137,1.166c2.264,0.238,4.733,0.132,6.927,0.646c2.375,0.556,4.439,2.127,6.635,3.148
			c5.087,2.368,10.512,3.903,16.029,4.841c5.429,0.925,10.676,2.089,16.18,1.546c5.523-0.545,10.95-0.958,16.425-1.992
			c10.356-1.954,20.481-6.446,28.934-12.752c3.911-2.918,8.624-6.482,11.67-10.26c1.549-1.922,2.436-4.062,4.446-5.607
			c1.861-1.43,3.945-2.175,5.679-3.861c0.081-0.079,0.149-0.162,0.226-0.242c1.93-1.049,3.699-2.308,5.187-3.955
			c3.61-3.993,6.347-9.122,10.528-12.585c3.908-3.237,7.861-5.279,11.385-9.101c4.421-4.799,9.357-9.073,13.81-13.836
			c8.26-8.834,13.099-18.987,14.765-31.064c0.836-6.064,1.244-12.002,0.466-18.096c-0.857-6.717,1.166-11.94,3.836-18.01
			C415.082,348.169,422.304,321.141,413.423,297.325z M374.299,215.584c1.319,2.375,2.39,4.985,3.818,7.292
			c0.301,0.488,0.634,1.27,1.079,1.779c0.086,0.389,0.216,0.768,0.39,1.135c1.536,5.211,4.377,9.913,5.89,15.164
			c1.675,5.816,3.117,11.125,3.692,17.186c0.706,7.447-0.472,14.459,1.049,21.01c-6.711,1.745-12.996,5.55-18.874,9.13
			c-7.503,4.57-14.458,9.98-21.571,15.073c-2.345-3.006-4.723-5.984-7.257-8.832c-4.568-5.134-8.948-11.087-12.327-17.144
			c-3.93-7.044-6.454-14.682-8.962-22.348c-0.923-2.822-1.917-5.589-2.986-8.303c10.103-4.899,19.793-10.061,29.286-16.151
			c8.612-5.524,17.613-10.551,25.976-16.342C373.775,214.677,374.045,215.126,374.299,215.584z M225.702,305.89
			c10.23,17.742,24.422,32.077,36.747,48.234c1.97,2.583,3.872,5.24,5.71,7.948c-7.465,4.518-15.237,8.612-23.002,12.584
			c-9.78,5.002-20.05,8.487-29.668,13.904c-4.657,2.623-8.812,5.897-13.194,8.938c-3.049,2.116-6.273,3.999-9.307,6.139
			c-1.272-4.158-2.674-8.271-4.554-12.091c-3.724-7.571-8.821-14.884-13.986-21.539c-6.379-8.219-14.02-15.637-21.082-23.459
			c15.724-14.107,32.818-26.964,49.969-39.117c5.429-3.847,10.941-7.588,16.518-11.237
			C221.822,299.406,223.81,302.61,225.702,305.89z M203.522,249.634c-2.523-3.574-5.079-7.176-7.729-10.71
			c15.469-7.729,30.712-18.286,43.678-29.696c6.703-5.899,13.571-10.609,21.064-15.299c1.494-0.936,2.943-1.841,4.397-2.723
			c0.379,0.378,0.765,0.755,1.156,1.135c3.593,3.493,7.534,6.962,11.329,10.255c7.429,6.446,13.844,14.625,19.504,22.616
			c3.606,5.091,6.657,10.584,9.283,16.271c-6.637,3.085-13.289,6.13-19.999,9.047c-9.801,4.26-19.791,8.064-29.051,13.448
			c-11.409,6.635-22.96,13.351-34.057,20.65C216.778,272.833,211.23,260.552,203.522,249.634z M254.838,329.691
			c-6.972-7.651-12.236-16.374-18.641-24.431c-3.436-4.321-6.436-8.92-9.208-13.661c8.849-5.594,17.859-10.939,27.011-16.003
			c18.002-9.958,37.332-16.52,56.002-24.994c0.24,0.635,0.487,1.268,0.718,1.904c3.406,9.38,5.519,18.763,10.211,27.584
			c5.575,10.482,12.901,19.93,20.515,29.165c-6.179,4.753-11.685,10.476-18.045,14.868c-8.669,5.986-16.908,12.575-25.617,18.531
			c-7.094,4.851-14.107,9.572-21.273,14.187c-0.599-0.902-1.199-1.802-1.806-2.711C268.824,345.329,261.914,337.457,254.838,329.691
			z M295.128,355.973c8.584-6.284,17.269-12.741,26.089-18.669c7.454-5.008,13.938-10.948,21.002-16.385
			c1.812-1.394,3.627-2.792,5.445-4.189c2.947,3.527,5.879,7.056,8.712,10.631c11.044,13.939,17.938,30.581,27.004,45.704
			c-2.739,1.427-5.355,3.106-7.349,4.339c-7.552,4.673-14.94,9.945-21.728,15.784c-7.299,6.279-15.328,10.731-23.435,15.856
			c-6.4,4.045-12.709,7.932-19.378,11.519c-1.659-2.222-3.291-4.475-4.92-6.751c-6.682-9.337-10.504-20.378-15.06-30.822
			c-2.794-6.402-6.106-12.244-9.701-17.982C286.363,362.126,290.822,359.126,295.128,355.973z M365.036,203.495
			c1.38,1.498,2.734,3.017,4.026,4.582c-6.943,1.877-14.344,7.442-19.952,10.544c-9.833,5.438-18.999,11.656-29.204,16.45
			c-1.87,0.878-3.74,1.755-5.61,2.633c-3.908-8.108-8.638-15.748-14.432-23.01c-5.008-6.278-11.118-12.861-17.418-17.817
			c-3.254-2.56-6.044-5.653-9.499-7.945c-0.552-0.367-1.182-0.746-1.834-1.135c0.225-0.11,0.436-0.227,0.663-0.335
			c5.297-0.248,10.782-1.145,16.561-2.878c5.453-1.635,11.219-5.632,16.077-8.643c3.408-2.112,6.822-3.979,10.171-6.039
			c0.148-0.022,0.296-0.043,0.446-0.072C330.557,182.995,350.905,188.15,365.036,203.495z M368.987,132.393
			c5.292-1.436,10.519-2.659,15.921-3.626c1.407-0.252,2.823-0.56,4.239-0.842c-4.664,9.312-10.151,18.491-15.769,27.014
			c-3.475,5.272-8.407,9.573-11.931,14.877c-1.397,2.102-1.881,4.703-3.219,6.759c-1.158,1.78-2.959,3.588-4.424,5.402
			c-5.148-3.436-10.531-6.695-16.258-8.852c-4.04-1.522-7.864-3.47-12.032-4.64c-1.315-0.369-2.643-0.646-3.971-0.91
			c4.901-1.875,9.877-3.512,14.891-5.078c4.076-1.273,8.111-2.355,11.812-4.535c3.385-1.993,7.693-3.015,10.57-5.738
			c0.592-0.561,0.815-1.476,0.595-2.253c-0.063-0.224-0.126-0.447-0.19-0.671c-0.233-0.828-1.176-1.434-2.03-1.152
			c-3.07,1.009-6.17,1.406-9.149,2.788c-4.189,1.943-8.06,3.777-12.497,5.153c-1.697,0.526-3.353,1.067-4.992,1.623
			c2.284-2.005,4.525-4.058,6.693-6.206c4.102-4.066,7.71-8.876,10.992-13.967c1.339-0.472,2.646-0.962,3.853-1.251
			C357.707,134.945,363.413,133.905,368.987,132.393z M287.961,47.122c3.222-4.652,6.703-9.304,10.247-13.712
			c3.464-4.308,6.764-9.062,10.605-13.025c2.328-2.402,4.796-5.495,7.456-7.936c1.077,1.803,1.838,3.808,2.486,5.845
			c1.228,3.861,2.999,7.055,3.682,11.059c1.32,7.739,1.818,15.557,2.49,23.359c0.078,0.91,0.349,1.69,0.74,2.357
			c-10.602,5.62-19.855,12.862-28.023,21.28c0.614-3.757,1.116-7.53,1.911-11.049c1.046-4.631,2.285-9.211,3.294-13.856
			c0.74-3.405,1.151-9.441,3.151-12.353c0.589-0.858-0.74-1.875-1.44-1.112c-2.045,2.232-2.937,5.949-4.05,8.655
			c-1.932,4.698-3.241,9.661-5.027,14.425c-1.754,4.678-2.807,9.514-4.293,14.273c-0.203,0.647-0.417,1.299-0.636,1.953
			c-1.03-8.212-3.373-16.355-6.445-24.171C285.5,51.231,286.592,49.101,287.961,47.122z M282.136,117.398
			c4.161-11.329,12.107-21.105,19.742-30.287c7.624-9.169,16.66-16.498,27.212-22.075c10.507-5.553,21.327-9.788,32.887-12.336
			c1.592-0.351,3.125-0.788,4.746-0.981c0.319-0.037,0.637-0.074,0.957-0.111c-0.399,1.18-0.844,3.345-0.861,3.483
			c-0.138,1.152-0.251,2.271-0.358,3.435c-0.65,7.03-1.213,14.005-2.763,20.911c-5.107,22.76-16.443,43.523-30.598,62.002
			c-7.654,9.992-19.645,18.732-30.764,24.389c-5.074,2.581-10.019,5.619-15.037,8.271c-3.619,1.912-8.556,3.109-13.286,3.731
			c4.187-5.518,8.083-11.269,12.326-16.749c3.349-4.326,7.44-7.743,10.807-12.027c2.848-3.625,5.289-7.559,7.773-11.434
			c5.212-8.129,11.323-15.773,17.042-23.555c2.639-3.592,5.55-7.366,7.602-11.32c1.34-2.584,3.558-5.54,3.321-8.559
			c-0.147-1.861-2.393-2.494-3.461-0.937c-1.05,1.533-2.675,2.477-3.809,3.931c-1.362,1.746-2.414,3.673-3.813,5.413
			c-2.669,3.321-4.975,6.868-7.704,10.151c-5.963,7.174-11.886,14.76-16.918,22.618c-5.456,8.519-12.525,15.16-18.59,23.165
			c-2.694,3.554-5.681,7.316-8.271,11.276c-0.074-0.655-0.154-1.307-0.227-1.964c-0.667-6.079,0.947-12.222,2.053-18.212
			c1.015-5.503,1.843-10.479,3.91-15.68c0.97-2.438,1.277-5.014,2.191-7.468C279.395,123.39,280.997,120.499,282.136,117.398z
			 M240.466,90.856c0.304-10.712,0.891-21.784,2.774-32.362c0.01-0.027,0.016-0.056,0.025-0.083
			c2.19-6.309,5.012-12.703,8.045-18.643c1.963-3.843,4.242-9.689,7.655-13.279c2.223,3.819,4.762,7.434,6.443,11.566
			c3.978,9.785,6.306,20.212,8.535,30.461c1.977,9.092,4.148,17.826,5.493,26.935c-0.979,1.507-1.224,3.484-0.732,5.228
			c-1.385,2.18-2.741,4.386-4.037,6.643c-3.603,6.268-6.132,13.698-8.135,20.628c-0.986,3.409-2.722,6.406-3.427,9.93
			c-0.646,3.227-1.171,6.522-1.675,9.796c-0.233-3.115-0.622-6.215-0.635-9.356c-0.021-4.807,0.263-9.614,0.01-14.419
			c-0.225-4.263-1.102-8.372-0.862-12.664c0.211-3.794,0.872-7.5,1.055-11.297c0.391-8.114,3.311-15.447,0.727-23.494
			c-0.601-1.875-3.196-1.869-3.801,0c-2.338,7.21-3.731,15.938-4.013,23.494c-0.141,3.785-0.776,7.509-0.963,11.297
			c-0.214,4.315,0.683,8.372,0.965,12.664c0.315,4.799,0.044,9.615,0.106,14.419c0.057,4.405,0.923,8.674,1.084,13.048
			c0.152,4.145,0.886,8.096,1.187,12.22c-2.169-4.126-4.184-8.34-6.156-12.562c-4.811-10.304-5.833-21.254-7.565-32.334
			C241.169,109.758,240.209,99.929,240.466,90.856z M192.603,35.111c0.382-4-0.758-7.761-0.735-11.735
			c0.006-1.047,0.042-2.158,0.096-3.293c1.512,0.741,3.038,1.473,4.638,2.172c4.44,1.94,8.832,4.568,13.071,6.914
			c8.06,4.461,16.281,10.053,22.723,16.645c0.802,0.819,2.023,1.429,3.258,1.593c-2.209,8.3-3.352,16.908-3.919,24.881
			c-0.157,2.207-0.335,4.446-0.503,6.701c-0.011-0.014-0.021-0.025-0.032-0.038c-1.53-1.886-2.464-4.061-3.631-6.173
			c-2.928-5.296-6.501-10.573-10.118-15.422c-2.904-3.892-6.085-7.609-8.822-11.581c-1.121-1.627-2.234-3.869-4.489-2.918
			c-0.335,0.141-0.477,0.513-0.212,0.805c1.174,1.299,1.081,4.023,1.661,5.636c0.606,1.685,1.633,3.231,2.56,4.75
			c2.99,4.898,5.87,9.804,8.786,14.743c2.058,3.484,3.688,7.236,5.613,10.783c-0.217-0.157-0.424-0.321-0.645-0.475
			c-7.546-5.261-14.865-10.555-23.12-14.696c-3.206-1.608-6.495-3.167-9.848-4.618C191.527,51.888,191.816,43.359,192.603,35.111z
			 M162.81,105.235c-3.366-7.16-5.999-14.449-7.771-22.135c-1.005-4.362-1.681-8.575-2.264-13.015
			c-0.331-2.521-1.036-5.186-1.239-7.807c16.172-1.245,33.633,6.766,47.157,14.472c6.773,3.859,14.365,8.344,20.149,13.603
			c3.635,3.304,7.261,7.626,12.039,9.482c0.06,0.713,0.109,1.43,0.193,2.137c0.259,2.186,0.484,4.368,0.697,6.549
			c0.022,0.699,0.044,1.402,0.065,2.096c0.094,3.11,0.473,6.191,1,9.252c0.314,3.31,0.646,6.622,1.067,9.942
			c1.402,11.036,4.639,20.992,9.511,30.939c1.383,2.823,3.01,6.648,5.011,10.379c-4.704-4.841-8.438-11.036-12.724-16.124
			c-7.021-8.332-14.5-16.445-21.218-25.018c-3.032-3.869-5.505-7.972-9.209-11.258c-3.432-3.044-6.522-6.302-9.864-9.433
			c-5.87-5.498-8.76-14.789-15.941-18.658c-0.409-0.22-0.923,0.235-0.658,0.658c2.457,3.942,3.509,8.841,5.432,13.055
			c1.539,3.372,4.035,6.811,6.599,9.514c3.147,3.317,6.051,6.752,9.363,9.935c3.778,3.63,6.389,8.227,9.604,12.337
			c6.788,8.679,14.085,16.967,20.919,25.611c2.266,2.867,4.583,5.736,6.769,8.673c-1.501-0.488-2.977-1.03-4.384-1.706
			c-2.828-1.356-5.306-3.186-8.206-4.426c-6.836-2.923-13.361-5.188-18.963-10.269c-5.333-4.836-11.039-9.286-16.403-14.117
			c-5.358-4.824-10.93-10.817-15.037-16.771C170.465,117.278,165.843,111.689,162.81,105.235z M167.145,163.86
			c-3.028-0.766-6.115-0.929-9.02-2.074c-2.812-1.108-5.477-2.027-8.409-2.87c-3.201-0.923-6.454-2.07-9.461-3.457
			c6.58-2.725,13.406-4.972,20.115-7.036c4.431-1.363,8.816-3.051,13.152-4.691c0.832-0.315,2.051-0.648,3.264-1.082
			c0.878,0.936,1.759,1.862,2.642,2.769c3.293,3.378,6.75,6.755,10.362,9.988c-0.031-0.004-0.059-0.011-0.089-0.015
			c-7.492-0.958-14.674-4.972-22.333-3.747c-0.441,0.07-0.435,0.809,0,0.884c7.814,1.364,14.838,6.683,22.188,9.199
			c3.53,1.208,7.172,2.754,10.699,4.132c0.709,0.278,1.367,0.605,1.995,0.949c-3.48,1.031-6.969,2.413-10.173,3.86
			c-1.54-0.867-3.362-1.424-5.298-1.885C180.204,167.216,173.686,165.514,167.145,163.86z M164.363,200.023
			c6.505-6.648,13.997-12.211,21.865-17.135c7.646-4.786,15.126-7.283,23.864-9.148c8.071-1.723,11.453,1.376,19.087,4.354
			c9.903,3.862,19.994,7.496,30.591,8.858c-1.412,0.562-2.818,1.16-4.21,1.85c-7.309,3.625-14.563,7.346-20.938,12.557
			c-13.978,11.427-28.404,21.943-44.096,30.837c-2.811-3.42-5.761-6.714-8.921-9.784c-4.976-4.835-10.54-9.384-14.691-14.97
			c-1.371-1.845-2.599-3.929-4.394-5.314C163.09,201.417,163.688,200.714,164.363,200.023z M126.478,272.375
			c0.667-7.704,0.132-16.495,3.538-23.661c4.531-9.535,10.549-17.507,17.047-25.727c2.912-3.684,6.537-7.056,9.07-10.977
			c1.435-2.221,2.621-4.365,3.937-6.436c1.634,2.618,2.736,6.506,4.351,8.702c3.127,4.252,7.066,7.945,10.747,11.701
			c3.025,3.086,6.011,6.375,8.876,9.794c-14.692,7.873-29.914,15.375-43.201,25.465c-3.195,2.427-5.913,5.274-8.87,7.961
			c-1.872,1.702-3.846,3.242-5.703,4.911C126.355,273.539,126.426,272.964,126.478,272.375z M128.041,281.681
			c2.981-3.448,6.861-5.968,10.234-9.015c3.811-3.443,7.609-6.551,11.974-9.309c12.421-7.85,25.71-14.576,38.926-21.142
			c2.408,3.202,4.678,6.479,6.729,9.79c5.542,8.953,10.413,18.066,14.793,27.67c1.552,3.404,3.312,6.663,5.164,9.862
			c-3.569,2.491-7.089,5.043-10.509,7.706c-8.556,6.663-17.309,12.725-25.734,19.546c-8.891,7.199-17.637,14.586-26.547,21.769
			c-1.301,1.049-2.59,2.124-3.871,3.217c-2.925-3.479-5.675-7.076-8.092-10.897c-5.433-8.589-10.387-18.095-14.082-27.573
			c-2.179-5.589-2.449-11.314-2.836-17.057C125.47,284.728,126.734,283.194,128.041,281.681z M117.117,374.168
			c-1.581-3.819-3.963-7.232-6.059-10.78c-2.611-4.42-3.223-8.507-4.134-13.413c-3.399-18.336,4.016-37.617,10.977-54.313
			c0.105,0.572,0.215,1.13,0.332,1.654c1.909,8.518,5.121,16.334,8.995,24.171c4.582,9.268,10.213,17.434,16.261,25.352
			c-5.999,5.497-11.765,11.334-17.272,17.136c-3.083,3.248-6.331,6.615-9.064,10.287
			C117.14,374.231,117.129,374.199,117.117,374.168z M145.887,452.571c-17.895-9.695-22.59-32.562-24.605-51.43
			c-0.683-6.398-0.789-13.54-2.137-20.123c0.104-0.145,0.201-0.285,0.31-0.431c2.804-3.769,6.352-7.419,9.552-10.929
			c5.715-6.265,12.087-12.045,18.415-17.761c3.746,4.745,7.592,9.465,11.407,14.35c5.734,7.344,11.696,14.202,16.607,22.182
			c4.262,6.926,6.9,14.401,9.307,22.079c-14.088,12.689-26.895,27.125-36.643,43.337
			C147.374,453.419,146.655,452.988,145.887,452.571z M217.614,486.901c-9.958-0.434-18.891,1.155-28.395-2.734
			c-8.165-3.341-16.145-8.113-22.289-14.49c-4.586-4.76-8.712-8.795-13.583-12.365c10.888-13.121,21.266-26.715,34.21-37.966
			c2.118,6.265,4.545,12.442,7.097,18.541c3.356,8.019,8.044,15.518,11.324,23.536c3.247,7.936,9.833,15.856,15.959,21.76
			c0.969,0.935,2.293,2.372,3.824,3.926C222.964,487.041,220.208,487.015,217.614,486.901z M234.498,481.236
			c-1.488-1.213-2.992-2.405-4.345-3.658c-5.771-5.36-11.517-12.295-14.9-19.384c-6.784-14.219-14.025-28.302-18.891-43.349
			c-0.227-0.704-0.446-1.418-0.664-2.13c6.378-4.857,13.05-9.33,19.798-13.692c9.004-5.821,18.97-9.057,28.567-13.571
			c9.862-4.638,19.718-9.717,29.256-15.291c2.57,4.292,4.951,8.687,7.073,13.162c4.798,10.12,8.44,20.833,14.056,30.559
			c2.286,3.961,5.013,7.78,7.801,11.466c-14.329,7.203-28.861,14.115-41,24.81C251.568,458.685,240.744,469.219,234.498,481.236z
			 M334.53,469.971c-2.159,1.518-4.568,2.628-6.423,4.819c-2.946,3.477-5.431,6.264-8.997,9.214
			c-6.834,5.649-14.513,10.115-23.141,12.41c-8.906,2.368-18.558,3.47-27.633,2.05c-4.534-0.71-8.954-1.475-13.306-2.963
			c-4.151-1.42-7.488-4.01-11.497-5.656c-0.813-0.333-1.649-0.621-2.503-0.876c-0.292-0.907-0.669-1.917-1.278-2.755
			c8.797-11.308,17.301-22.482,28.674-31.761c11.633-9.49,25.421-15.819,39.013-22.199c2.012,2.742,4.057,5.473,6.457,7.856
			c8.519,8.46,15.702,16.224,20.47,27.448c0.257,0.605,0.589,1.068,0.953,1.459C335.04,469.322,334.774,469.637,334.53,469.971z
			 M378.627,427.354c-4.749,4.587-9.885,8.739-14.628,13.336c-2.046,1.985-3.851,4.104-6.222,5.677
			c-2.45,1.625-5.098,2.936-7.199,5.054c-2.951,2.974-5.355,6.405-7.902,9.71c-3.787-8.502-8.871-15.941-15.593-22.425
			c-3.62-3.493-6.921-7.198-10.058-11.04c0.266-0.131,0.535-0.259,0.799-0.391c7.499-3.722,14.372-8.372,21.742-12.252
			c7.165-3.772,14.23-8.367,20.341-13.679c6.54-5.686,13.865-11.049,21.315-15.352c2.629-1.519,5.348-2.849,7.818-4.449
			c0.159,0.149,0.321,0.287,0.487,0.41c-0.011,3.841,0.642,7.428,1.033,11.705C391.661,405.744,387.3,418.976,378.627,427.354z
			 M396.77,360.718c-1.105,2.687-2.543,5.254-3.837,7.87c-0.451-0.716-0.881-1.44-1.258-2.181
			c-2.148-4.208-4.128-8.626-6.773-12.539c-4.444-6.574-8.364-13.926-12.37-20.758c-3.853-6.572-8.768-12.462-13.658-18.274
			c-1.134-1.347-2.239-2.72-3.333-4.1c4.315-3.245,8.676-6.438,13.121-9.509c8.207-5.671,16.689-9.635,25.524-13.73
			c0.315,0.404,0.624,0.808,0.981,1.207C412.865,308.499,405.867,338.613,396.77,360.718z"/>
	</g>
</g>
</svg>
